<?xml version="1.0" encoding="UTF-8"?>
<svg version="1.1" xmlns="http://www.w3.org/2000/svg" width="512" height="512">
<path d="M0 0 C18.46529655 16.04903874 30.84322141 35.64701733 33.8359375 60.46484375 C33.92871478 63.22616669 33.9796128 65.96191292 33.97637939 68.72253418 C33.97935052 69.52647503 33.98232164 70.33041589 33.9853828 71.15871859 C33.99401717 73.83824499 33.99557358 76.51772644 33.99707031 79.19726562 C34.00170232 81.12467544 34.00672749 83.05208434 34.01211548 84.97949219 C34.02520708 90.2071905 34.03167844 95.43487598 34.03612614 100.66258812 C34.0390629 103.9340418 34.0431689 107.20549203 34.04763031 110.47694397 C34.06129849 120.72798759 34.07096772 130.97902326 34.0748322 141.23007536 C34.0793074 153.03411142 34.09683322 164.83803137 34.1258328 176.64203215 C34.1475082 185.78458499 34.15753965 194.92710531 34.15887332 204.06968355 C34.15991742 209.52118686 34.16574035 214.97258092 34.18369293 220.42405701 C34.20027453 225.55902774 34.20228054 230.69380828 34.19355392 235.82879639 C34.19278884 237.70274874 34.19705553 239.57671176 34.20701218 241.45063782 C34.33555087 267.17268801 27.96786158 291.01633884 9.55078125 309.78515625 C8.65488281 310.66945313 7.75898438 311.55375 6.8359375 312.46484375 C5.72412109 313.57472656 5.72412109 313.57472656 4.58984375 314.70703125 C-13.60445614 331.86642601 -37.14619449 338.45478549 -61.65234375 337.8125 C-84.73303849 336.69082889 -104.7841168 326.5666919 -121.1640625 310.46484375 C-121.85113281 309.79066406 -122.53820312 309.11648438 -123.24609375 308.421875 C-141.61872232 289.10706035 -146.47725658 265.0168699 -146.4387207 239.27832031 C-146.44307434 237.35031946 -146.44825966 235.42232033 -146.45420837 233.49432373 C-146.46754099 228.28337067 -146.46818334 223.0724904 -146.46564507 217.86152363 C-146.46457123 213.49814329 -146.46946938 209.13477743 -146.4742505 204.77140021 C-146.48532634 194.46900828 -146.48579424 184.16665281 -146.47973633 173.86425781 C-146.47370072 163.26754033 -146.48600154 152.67095576 -146.5073064 142.07426095 C-146.52497307 132.94860628 -146.5309157 123.82299373 -146.52766865 114.69732261 C-146.52586336 109.25930142 -146.52841603 103.82137501 -146.54238319 98.38336945 C-146.55503923 93.2647493 -146.5529445 88.1463349 -146.53997231 83.02771759 C-146.53762363 81.16021655 -146.54027908 79.29270067 -146.54859543 77.42521667 C-146.65445164 51.78491532 -140.31977911 27.9168769 -121.94140625 9.2109375 C-120.56662109 7.85162109 -120.56662109 7.85162109 -119.1640625 6.46484375 C-118.36097656 5.65144531 -117.55789062 4.83804687 -116.73046875 4 C-85.50427296 -25.9956068 -33.34186248 -26.71916377 0 0 Z M-95.7421875 37.265625 C-106.95109104 51.38997567 -108.61786358 66.4096005 -108.55224609 83.78686523 C-108.55631874 85.60988681 -108.56166448 87.43290591 -108.56817627 89.25592041 C-108.58177427 94.17540963 -108.57658219 99.09470867 -108.56703901 104.01420093 C-108.55940211 109.18241023 -108.56649927 114.35060409 -108.57119751 119.51881409 C-108.57664386 128.19624734 -108.56949343 136.87360381 -108.55517578 145.55102539 C-108.53885661 155.55648757 -108.54413702 165.56176624 -108.560655 175.56722397 C-108.57430802 184.18502343 -108.57617077 192.80276793 -108.56833899 201.42057472 C-108.56368274 206.55557989 -108.56298077 211.69049907 -108.57294846 216.82549858 C-108.58167139 221.65605042 -108.57549975 226.48636778 -108.55826569 231.31689453 C-108.5543289 233.0804156 -108.55538617 234.8439567 -108.56205368 236.60746956 C-108.6260918 255.27941268 -105.73898859 270.2434216 -92.4453125 284.24609375 C-82.43674077 293.98045804 -70.32487083 299.23644149 -56.3515625 299.77734375 C-42.70382499 299.39350113 -28.90445338 294.20523463 -19.1640625 284.46484375 C-6.08326733 269.67143883 -3.70598012 254.12510548 -3.76000977 235.08276367 C-3.75429694 233.25313401 -3.74732918 231.4235079 -3.73921204 229.59388733 C-3.72136448 224.65567975 -3.72243334 219.71765068 -3.72815442 214.77942061 C-3.73125905 210.64214801 -3.72513958 206.50490906 -3.71911567 202.36764127 C-3.70509909 192.5988251 -3.7066073 182.83009644 -3.71801758 173.0612793 C-3.72949087 163.01719221 -3.71542975 152.97337239 -3.6886211 142.92932051 C-3.66639518 134.27496892 -3.65984236 125.6207008 -3.66569752 116.96632272 C-3.66905245 111.81109831 -3.66675023 106.65604509 -3.64944649 101.50084496 C-3.63386955 96.64889733 -3.63805093 91.79734249 -3.65675163 86.94540977 C-3.66040823 85.17627533 -3.65741581 83.40711107 -3.64686584 81.6380043 C-3.5500811 64.05010342 -6.28689031 48.54777552 -18.5546875 35.046875 C-28.86299651 24.91370716 -41.66636239 19.54418932 -55.9765625 19.15234375 C-71.44545076 19.45142 -85.44818721 25.51925339 -95.7421875 37.265625 Z " fill="#000000" transform="translate(312.1640625,18.53515625)"/>
<path d="M0 0 C3.96722586 3.29615283 6.57288534 7.25373782 7.5703125 12.3046875 C7.68428093 14.49425741 7.7483287 16.68661946 7.78125 18.87890625 C7.82028442 20.8276062 7.82028442 20.8276062 7.86010742 22.81567383 C7.87335052 23.49804108 7.88659363 24.18040833 7.90023804 24.88345337 C8.68430661 61.56480381 19.61247783 93.00490936 45.97998047 119.20288086 C69.14839767 141.32664237 100.75619726 152.60397962 132.5703125 152.3046875 C156.97892665 151.47280208 180.92829602 143.97111217 200.5703125 129.3046875 C201.39402344 128.70269531 202.21773437 128.10070312 203.06640625 127.48046875 C228.2091254 108.29154549 245.392944 79.90460887 250.05859375 48.48828125 C251.0511409 40.08887263 251.04134476 31.53151202 251.10473633 23.0793457 C251.24517954 13.82916612 251.86482751 7.20175778 258.5703125 0.3046875 C263.7599555 -3.07461492 269.63116223 -4.48596632 275.75 -3.2578125 C281.45724466 -1.36257654 284.82185722 1.86933907 288.3203125 6.7421875 C290.84366914 11.91506862 290.73400736 17.46117939 290.6953125 23.1171875 C290.69120361 23.85710937 290.68709473 24.59703125 290.68286133 25.359375 C290.24346033 70.03653413 275.60047029 109.03317934 245.5703125 142.3046875 C244.85488281 143.10519531 244.13945312 143.90570313 243.40234375 144.73046875 C222.79997019 166.52833787 194.53817293 180.61928771 165.6953125 187.5546875 C165.01807129 187.71799561 164.34083008 187.88130371 163.64306641 188.04956055 C158.57178664 189.21010579 153.8194813 189.72144652 148.5703125 190.3046875 C148.5703125 205.4846875 148.5703125 220.6646875 148.5703125 236.3046875 C159.44468732 236.18636708 159.44468732 236.18636708 170.31860352 236.03442383 C171.69546811 236.02565097 173.07234057 236.01800893 174.44921875 236.01171875 C175.49668274 235.9886969 175.49668274 235.9886969 176.56530762 235.96520996 C182.95143157 235.96185179 187.41101908 237.48891804 192.3203125 241.6171875 C196.98858216 247.19317626 198.09016101 251.52296548 197.84765625 258.69140625 C197.17719582 265.00884324 193.93911336 268.22022889 189.2890625 272.10546875 C186.27764303 274.20661824 183.62868913 274.43192174 180.07389832 274.44512939 C179.15288834 274.45083954 178.23187836 274.45654968 177.28295898 274.46243286 C176.27458984 274.46355072 175.2662207 274.46466858 174.22729492 274.46582031 C173.16360184 274.47078522 172.09990875 274.47575012 171.00398254 274.48086548 C167.47790891 274.49549491 163.95188027 274.50229044 160.42578125 274.5078125 C157.97821552 274.51356331 155.53064981 274.51932105 153.08308411 274.52508545 C147.94755849 274.53559766 142.81204854 274.54143889 137.67651367 274.54492188 C131.09569233 274.55040699 124.51507786 274.5744347 117.9343214 274.60289383 C112.87713516 274.62151656 107.81999878 274.62672562 102.76278114 274.62825775 C100.33669211 274.63128563 97.91060399 274.63931865 95.48454857 274.65244293 C92.09004347 274.66949532 88.69604422 274.66762487 85.30151367 274.66113281 C84.29921722 274.6703476 83.29692078 274.67956238 82.26425171 274.6890564 C76.02972146 274.65170062 71.47564089 273.98465499 66.70703125 269.5859375 C66.22878906 268.998125 65.75054687 268.4103125 65.2578125 267.8046875 C64.76667969 267.216875 64.27554688 266.6290625 63.76953125 266.0234375 C60.54807336 261.40636431 61.05591365 255.67648121 61.5703125 250.3046875 C63.12843707 244.71984342 66.03219252 241.40410885 70.7890625 238.21484375 C75.15714466 235.98290703 79.59203344 236.17257577 84.3984375 236.20703125 C85.39496338 236.20854187 85.39496338 236.20854187 86.41162109 236.21008301 C88.88120258 236.21529488 91.35075937 236.22925611 93.8203125 236.2421875 C99.3478125 236.2628125 104.8753125 236.2834375 110.5703125 236.3046875 C110.5703125 221.1246875 110.5703125 205.9446875 110.5703125 190.3046875 C105.6203125 189.6446875 100.6703125 188.9846875 95.5703125 188.3046875 C92.58084831 187.66831641 89.73802192 187.02554508 86.8203125 186.1796875 C86.07990723 185.96795898 85.33950195 185.75623047 84.57666016 185.53808594 C43.60159809 173.31006112 9.05493792 145.30437852 -11.51953125 107.90234375 C-25.84608247 81.22305696 -31.29078554 53.33778083 -31.6171875 23.2421875 C-31.63023926 22.56446289 -31.64329102 21.88673828 -31.65673828 21.18847656 C-31.66955664 13.75748894 -30.30527118 7.1026789 -25.4296875 1.3046875 C-17.49829567 -4.48208556 -8.42866602 -5.37082439 0 0 Z " fill="#000000" transform="translate(126.4296875,237.6953125)"/>
</svg>
