<?xml version="1.0" encoding="UTF-8"?>
<svg version="1.1" xmlns="http://www.w3.org/2000/svg" width="1257" height="670">
<path d="M0 0 C0.99 0.7425 1.98 1.485 3 2.25 C3.66 2.8275 4.32 3.405 5 4 C5 4.66 5 5.32 5 6 C5.99 6.33 6.98 6.66 8 7 C8 7.66 8 8.32 8 9 C8.66 9 9.32 9 10 9 C35.67308029 38.39872519 37.81163294 83.48214348 40.625 120.25 C40.68771088 121.06896759 40.75042175 121.88793518 40.81503296 122.73171997 C42.43923072 144.23419931 43.16092161 165.67149341 43.16796875 187.234375 C43.17119754 189.61012795 43.17456269 191.98588072 43.17805481 194.3616333 C43.18399298 199.3131964 43.18590036 204.26474219 43.18530273 209.21630859 C43.18522172 214.21732214 43.19213298 219.2182436 43.20581055 224.21923828 C43.27722419 250.71796566 43.28670372 277.11526752 41.25984192 303.54902649 C40.89314675 308.4191233 40.58789832 313.29269498 40.28074646 318.16685486 C38.34680552 347.70275588 35.98362302 379.42922118 22.125 406.1875 C21.77695313 406.86820557 21.42890625 407.54891113 21.0703125 408.25024414 C10.29106365 429.01367317 -6.58941916 443.67477133 -28.75 451.3125 C-29.40291016 451.54275879 -30.05582031 451.77301758 -30.72851562 452.01025391 C-44.70501582 456.50741391 -59.74701699 457.5725081 -74.3125 458.5 C-75.20185242 458.55903503 -76.09120483 458.61807007 -77.00750732 458.67889404 C-96.54472903 459.96199207 -116.10759724 460.75350715 -135.67031479 461.52767944 C-138.05609609 461.62226818 -140.44182191 461.71816899 -142.82754517 461.81420898 C-193.29332059 463.83019656 -243.74409064 464.16555339 -294.2423445 464.12856972 C-299.97325519 464.1248052 -305.70414854 464.12615539 -311.43505859 464.13037109 C-364.97600897 464.16860343 -418.47675856 463.69042838 -471.99023438 461.80761719 C-475.53237493 461.68323756 -479.07464151 461.56536106 -482.6171875 461.453125 C-501.36448181 460.85810234 -520.06380788 460.0824444 -538.7578125 458.51171875 C-539.4906974 458.45045933 -540.22358231 458.38919991 -540.97867584 458.32608414 C-564.05808331 456.36618252 -587.57580998 453.78896262 -608 442 C-608.78375 441.55398438 -609.5675 441.10796875 -610.375 440.6484375 C-614.47487058 438.21413934 -614.47487058 438.21413934 -616 437 C-616 436.34 -616 435.68 -616 435 C-616.59296875 434.72027344 -617.1859375 434.44054687 -617.796875 434.15234375 C-635.12838272 425.08710479 -642.7105405 402.11620147 -648.20654297 384.60351562 C-654.40805636 364.25491907 -655.99705434 343.37584029 -657.8046875 322.27630615 C-657.98269478 320.20168694 -658.16494713 318.12743307 -658.34765625 316.05322266 C-660.41029662 292.43403217 -661.15939179 268.82778629 -661.1328125 245.125 C-661.13348976 242.9337564 -661.13446324 240.74251288 -661.13571167 238.55126953 C-661.13716887 234.00357331 -661.13509889 229.45589699 -661.13037109 224.90820312 C-661.12467508 219.15726129 -661.12796486 213.40636616 -661.13394356 207.65542603 C-661.13760331 203.14395818 -661.1363861 198.63250093 -661.13381577 194.12103271 C-661.13316136 192.00372308 -661.13392106 189.8864124 -661.13629532 187.769104 C-661.15550347 165.84251489 -660.32737008 143.98531546 -658.625 122.125 C-658.5596405 121.27657532 -658.49428101 120.42815063 -658.42694092 119.55401611 C-651.50158234 30.16207941 -651.50158234 30.16207941 -622.30078125 3.5390625 C-607.28817035 -9.06566799 -590.80831673 -17.53975672 -571.31640625 -20.55078125 C-570.49604889 -20.67799057 -569.67569153 -20.80519989 -568.83047485 -20.93626404 C-559.21615969 -22.3555623 -549.57075905 -22.99467888 -539.875 -23.5625 C-538.3758757 -23.65396805 -538.3758757 -23.65396805 -536.84646606 -23.74728394 C-514.18630888 -25.12372912 -491.50982882 -25.96876823 -468.81904602 -26.6415863 C-462.24779259 -26.83644596 -455.67736786 -27.04267048 -449.10742188 -27.27783203 C-371.08833641 -30.07016114 -292.82006128 -30.13782914 0 0 Z " fill="#DE2426" transform="translate(1178,110)"/>
<path d="M0 0 C13.86 0 27.72 0 42 0 C42.33 33.66 42.66 67.32 43 102 C45.31 99.36 47.62 96.72 50 94 C55.93666316 87.92003807 62.31905011 83.60993399 70 80 C70.70511719 79.65839844 71.41023437 79.31679687 72.13671875 78.96484375 C80.49041803 75.543805 91.87242988 75.5092847 100.375 78.4375 C110.67970521 83.41637272 117.07821155 91.4185708 121 102 C127.32638035 121.98465846 127.30245802 142.28140271 127.265625 163.046875 C127.26607293 165.75238184 127.26891793 168.45788551 127.27142334 171.16339111 C127.27503849 176.81142161 127.27033106 182.45939942 127.26074219 188.10742188 C127.24988361 194.57677795 127.2533743 201.04600763 127.264395 207.51536059 C127.27356403 213.12873477 127.27470627 218.7420716 127.26951766 224.35545087 C127.26644731 227.68199568 127.26666912 231.0084356 127.27259064 234.33498383 C127.35586151 294.26376962 127.35586151 294.26376962 111 311 C108.45289987 312.92679341 105.82104163 314.50744139 103 316 C102.40574219 316.32226562 101.81148437 316.64453125 101.19921875 316.9765625 C92.75717625 320.84507876 82.00922123 320.07872794 73.41796875 317.0234375 C60.82325557 311.69255728 52.58113587 303.58113587 43 294 C42.67 301.26 42.34 308.52 42 316 C28.14 316 14.28 316 0 316 C0 211.72 0 107.44 0 0 Z " fill="#FEFDFD" transform="translate(877,164)"/>
<path d="M0 0 C2.50019037 2.19334882 4.86828671 4.45637921 7.203125 6.82421875 C7.85023437 7.46101563 8.49734375 8.0978125 9.1640625 8.75390625 C16.86199416 16.85522298 20.8691793 27.03683557 23.203125 37.82421875 C23.44725632 38.77430817 23.44725632 38.77430817 23.69631958 39.74359131 C25.56255229 47.68469434 25.45849143 55.57266594 25.3984375 63.67578125 C25.39548957 65.01586744 25.39345376 66.35595595 25.39233398 67.69604492 C25.38193346 72.61380511 25.35401126 77.5315157 25.328125 82.44921875 C25.286875 93.46296875 25.245625 104.47671875 25.203125 115.82421875 C-2.516875 115.82421875 -30.236875 115.82421875 -58.796875 115.82421875 C-58.714375 124.65171875 -58.631875 133.47921875 -58.546875 142.57421875 C-58.52318848 146.71742676 -58.52318848 146.71742676 -58.49902344 150.94433594 C-58.46961849 153.16994247 -58.43878649 155.3955308 -58.40625 157.62109375 C-58.40455811 159.31032959 -58.40455811 159.31032959 -58.40283203 161.03369141 C-58.253611 169.43010404 -57.37665165 179.5344441 -51.296875 185.94921875 C-45.59814244 190.22326817 -40.81714185 190.60101176 -33.796875 189.82421875 C-29.1728883 188.47459743 -26.45277286 186.63546084 -23.421875 182.88671875 C-20.63626852 177.63692192 -19.53579531 173.76526412 -19.3828125 167.7734375 C-19.32939697 165.9649231 -19.32939697 165.9649231 -19.27490234 164.11987305 C-19.22390381 161.83883667 -19.22390381 161.83883667 -19.171875 159.51171875 C-18.98625 152.24140625 -18.98625 152.24140625 -18.796875 144.82421875 C-4.276875 144.82421875 10.243125 144.82421875 25.203125 144.82421875 C25.203125 194.83702387 25.203125 194.83702387 6.25 214.0234375 C-2.45735877 222.32246282 -12.28799088 226.16832242 -23.796875 228.82421875 C-24.42980469 228.99928955 -25.06273437 229.17436035 -25.71484375 229.35473633 C-41.45832174 232.90477246 -59.48454757 229.04526847 -73.09472656 220.93994141 C-90.3126778 209.65393493 -98.16774603 192.56350269 -102.39550781 173.1184082 C-103.63149233 166.05359887 -103.95419048 159.20241004 -103.97387695 152.04394531 C-103.98044815 150.99225662 -103.98701935 149.94056793 -103.99378967 148.85700989 C-104.01341865 145.3929536 -104.02516602 141.9289406 -104.03515625 138.46484375 C-104.03923178 137.27252892 -104.0433073 136.08021408 -104.04750633 134.85176849 C-104.06832922 128.53285397 -104.0826437 122.21396088 -104.09204102 115.89501953 C-104.10305913 109.41990881 -104.13741707 102.94514609 -104.17721272 96.47015762 C-104.2035666 91.44758538 -104.2117497 86.42509346 -104.21532249 81.40245819 C-104.22014508 79.01863014 -104.23163257 76.63480459 -104.25036049 74.25104523 C-104.42024943 51.18158164 -103.12711269 26.77398415 -86.796875 8.82421875 C-86.15234375 8.0765625 -85.5078125 7.32890625 -84.84375 6.55859375 C-63.43773911 -16.75017366 -24.77940491 -19.27671583 0 0 Z " fill="#FEFDFD" transform="translate(1135.796875,253.17578125)"/>
<path d="M0 0 C6.53278786 -0.02527002 13.06556321 -0.04283292 19.59838867 -0.05493164 C21.82267732 -0.05997317 24.04696263 -0.06680623 26.27124023 -0.07543945 C29.46078309 -0.08751298 32.65028229 -0.09322996 35.83984375 -0.09765625 C37.34139259 -0.10539818 37.34139259 -0.10539818 38.87327576 -0.11329651 C39.79415482 -0.11337204 40.71503387 -0.11344757 41.66381836 -0.11352539 C42.47878281 -0.115746 43.29374725 -0.11796661 44.13340759 -0.12025452 C46 0 46 0 47 1 C47.11016314 3.56680557 47.15496247 6.10728423 47.15821838 8.67506409 C47.16562535 9.8952861 47.16562535 9.8952861 47.17318195 11.14015907 C47.18863482 13.88713838 47.19693852 16.63409418 47.20532227 19.38110352 C47.21489468 21.34181935 47.22490437 23.3025331 47.23532104 25.26324463 C47.2624452 30.60391085 47.28341396 35.94458599 47.30332303 41.28528333 C47.32513643 46.86004095 47.35254777 52.4347709 47.37937927 58.00950623 C47.4293692 68.57404085 47.47428457 79.13859079 47.51740164 89.70315546 C47.5667203 101.72715195 47.62165828 113.75112068 47.67708123 125.77509034 C47.79099794 150.51670101 47.89781577 175.25833829 48 200 C49.26763184 200.34039307 50.53526367 200.68078613 51.84130859 201.03149414 C52.91087296 201.31870079 52.91087296 201.31870079 54.00204468 201.61170959 C58.21167704 202.42982592 61.50139515 200.12115045 65 198 C68.29284915 195.69711189 70.74927332 193.37609001 73 190 C73.66 190 74.32 190 75 190 C75.28875 189.401875 75.5775 188.80375 75.875 188.1875 C77 186 77 186 79 183 C79.19838277 180.54150388 79.280953 178.19551617 79.27174377 175.73654175 C79.27683061 174.99147751 79.28191745 174.24641327 79.28715843 173.47877133 C79.30185465 170.97521608 79.30235349 168.47185713 79.30297852 165.96826172 C79.31063725 164.17635717 79.31918315 162.38445623 79.32855225 160.59255981 C79.34684842 156.73094154 79.35887571 152.86937188 79.36609077 149.00771713 C79.37755472 142.90785171 79.403 136.80809414 79.43040466 130.70828247 C79.47207699 121.06582331 79.50448329 111.42335903 79.53287882 101.78085244 C79.58384933 84.49921976 79.64586925 67.21763159 79.71821922 49.93607533 C79.74320465 43.86573636 79.76260749 37.79541178 79.77760136 31.7250402 C79.78777116 27.95777707 79.80191661 24.19053627 79.81707764 20.42329025 C79.82325793 18.66925072 79.82770326 16.91520414 79.83033562 15.1611557 C79.8341192 12.77722562 79.84390794 10.39339527 79.85523987 8.00949097 C79.85485374 7.30629758 79.8544676 6.60310419 79.85406977 5.87860191 C79.88593544 1.11406456 79.88593544 1.11406456 81 0 C95.85 0 110.7 0 126 0 C126 79.2 126 158.4 126 240 C111.15 240 96.3 240 81 240 C79.34920558 238.34920558 79.77450553 236.36263821 79.68359375 234.08984375 C79.64169922 233.10048828 79.59980469 232.11113281 79.55664062 231.09179688 C79.51732422 230.05087891 79.47800781 229.00996094 79.4375 227.9375 C79.39431641 226.89271484 79.35113281 225.84792969 79.30664062 224.77148438 C79.20018775 222.18113116 79.0981724 219.59067814 79 217 C78.2265625 217.79664063 77.453125 218.59328125 76.65625 219.4140625 C64.59829577 231.73030436 52.06713863 242.59827957 34 243.25 C25.18178791 242.92998424 18.44553402 241.2653363 12 235 C7.59849477 230.16932306 4.83814715 225.24970032 3 219 C2.80664062 218.36320313 2.61328125 217.72640625 2.4140625 217.0703125 C-0.7975022 205.48075293 -0.13732731 193.32237476 -0.11352539 181.41357422 C-0.113243 179.43182883 -0.11340227 177.45008334 -0.1139679 175.46833801 C-0.11425383 170.11165376 -0.10839007 164.75499207 -0.10139394 159.39831305 C-0.09512644 153.79159505 -0.09455392 148.18487648 -0.09336853 142.57815552 C-0.09026521 131.97140137 -0.08206532 121.36465758 -0.07201904 110.75790799 C-0.06082683 98.67810078 -0.05533963 86.59829307 -0.05032361 74.51848197 C-0.03988186 49.67898225 -0.02230181 24.83949171 0 0 Z " fill="#0F0E0C" transform="translate(356,241)"/>
<path d="M0 0 C16.83 0 33.66 0 51 0 C56.74480464 18.38337486 56.74480464 18.38337486 58.8671875 26.67578125 C59.10764297 27.60165039 59.34809845 28.52751953 59.59584045 29.48144531 C60.35920475 32.42420071 61.11710962 35.36833067 61.875 38.3125 C62.40658417 40.36427965 62.93857 42.41595529 63.47094727 44.4675293 C65.54756408 52.47617933 67.61264856 60.48778582 69.6708374 68.50119019 C70.4253105 71.4385722 71.18111355 74.37561014 71.9375 77.3125 C72.20900879 78.36679199 72.48051758 79.42108398 72.76025391 80.50732422 C74.63746469 87.74096802 76.67031281 94.91330979 78.859375 102.05859375 C80.43576186 107.31942663 81.69525993 112.66679216 83 118 C87.10916496 104.45200083 90.88046406 90.84214817 94.375 77.125 C94.56268951 76.38851227 94.75037903 75.65202454 94.9437561 74.89321899 C95.32690338 73.38933684 95.71001578 71.8854458 96.09309387 70.38154602 C96.28409164 69.63172958 96.47508942 68.88191315 96.671875 68.109375 C96.86339645 67.35718185 97.05491791 66.60498871 97.25224304 65.83000183 C99.33393049 57.66711154 101.46971985 49.51873709 103.625 41.375 C103.81067535 40.67322632 103.99635071 39.97145264 104.18765259 39.24841309 C107.66387418 26.12874384 111.30247225 13.05935333 115 0 C131.83 0 148.66 0 166 0 C163.74979287 10.12593206 163.74979287 10.12593206 162.43115234 14.3984375 C162.13679291 15.35814453 161.84243347 16.31785156 161.53915405 17.30664062 C161.22459259 18.31919922 160.91003113 19.33175781 160.5859375 20.375 C160.25260406 21.45716797 159.91927063 22.53933594 159.57583618 23.65429688 C158.86975797 25.94419584 158.16199158 28.23357487 157.45263672 30.52246094 C156.39572565 33.93311822 155.34385043 37.34529327 154.29296875 40.7578125 C150.20968648 53.99408298 146.03514405 67.19903233 141.79931641 80.38720703 C139.49662653 87.55943839 137.24095811 94.74575414 135 101.9375 C134.57626638 103.29533287 134.15251928 104.65316154 133.72875977 106.01098633 C130.46117741 116.48853749 127.23084766 126.97741677 124.0078125 137.46875 C121.7825296 144.71034858 119.55094735 151.94996234 117.3125 159.1875 C116.95599365 160.34467529 116.5994873 161.50185059 116.23217773 162.6940918 C115.88356689 163.81984619 115.53495605 164.94560059 115.17578125 166.10546875 C114.84844498 167.18867905 114.5211087 168.27188934 114.18385315 169.38792419 C113 173 113 173 111.71862793 175.89559937 C106.39089363 188.71355238 107.25936336 202.32883768 107.29110122 215.97362018 C107.29425935 219.60514839 107.26909645 223.23648759 107.24714661 226.86793518 C107.20992361 233.72046103 107.19757162 240.57278854 107.1945222 247.42540556 C107.18980754 255.23706551 107.15680773 263.04852968 107.12162435 270.86010253 C107.04997378 286.90675956 107.01695052 302.95317778 107 319 C91.16 319 75.32 319 59 319 C59.00112793 315.10082764 59.00225586 311.20165527 59.00341797 307.18432617 C59.00278787 294.24024656 58.96947368 281.29641937 58.9197216 268.35244274 C58.8903688 260.51150318 58.87185011 252.67083177 58.87988281 244.82983398 C58.88686493 237.98639394 58.87245385 231.14336988 58.83356392 224.30003148 C58.81373359 220.68472653 58.80379218 217.0700723 58.81957626 213.45473289 C58.87907049 198.1972446 58.52734926 184.32097772 52.77375698 170.01655674 C51.38223458 166.38998671 50.32097826 162.65996687 49.21875 158.9375 C48.76882818 157.45599297 48.31802426 155.97475326 47.8659668 154.49389648 C47.64258636 153.75887909 47.41920593 153.02386169 47.1890564 152.26657104 C43.20243483 139.15304209 39.17163326 126.05601662 35 113 C31.06868913 100.69612361 27.26689521 88.35501536 23.5 76 C18.78059524 60.5287161 13.99550477 45.08688145 8.97265625 29.7109375 C8.41843301 28.00971858 7.86431762 26.30846452 7.31030273 24.60717773 C6.19768477 21.19138537 5.08068624 17.77706617 3.96118164 14.36352539 C3.44535319 12.78275467 2.92964171 11.20194578 2.4140625 9.62109375 C2.17063614 8.88245087 1.92720978 8.14380798 1.67640686 7.38278198 C0 2.22700916 0 2.22700916 0 0 Z " fill="#0F0E0C" transform="translate(41,162)"/>
<path d="M0 0 C16.43431109 15.9770553 21.33111966 37.57079495 21.66349792 59.78921509 C21.72401346 66.09376031 21.7284258 72.39833592 21.73046875 78.703125 C21.7336883 81.04661071 21.73705288 83.39009623 21.74055481 85.73358154 C21.74652049 90.6321255 21.74839734 95.53065189 21.74780273 100.42919922 C21.74770123 106.66682688 21.76135287 112.90434041 21.77857494 119.14194107 C21.7897622 123.97904973 21.79171989 128.81613138 21.79119301 133.65325165 C21.79236303 135.95105126 21.79672897 138.2488518 21.80452538 140.54663849 C21.8783959 164.56419649 21.02286374 187.52011271 6.5625 207.6875 C6.04816406 208.43386719 5.53382813 209.18023437 5.00390625 209.94921875 C4.29041016 210.80966797 4.29041016 210.80966797 3.5625 211.6875 C2.9025 211.6875 2.2425 211.6875 1.5625 211.6875 C1.2325 212.6775 0.9025 213.6675 0.5625 214.6875 C-11.82685874 225.62084436 -29.11644938 231.59329367 -45.58203125 230.9609375 C-59.41992487 229.63583141 -70.88374954 225.3900003 -82.4375 217.6875 C-82.4375 217.0275 -82.4375 216.3675 -82.4375 215.6875 C-83.00855469 215.44515625 -83.57960937 215.2028125 -84.16796875 214.953125 C-94.20190166 209.35760992 -99.93893847 197.06918177 -103.46484375 186.65234375 C-107.7867281 170.67642301 -107.74961264 154.53165106 -107.73828125 138.1171875 C-107.74217892 135.74512661 -107.74651575 133.37306641 -107.75126648 131.00100708 C-107.75869111 126.04719779 -107.75846552 121.0934598 -107.75317383 116.13964844 C-107.74739453 109.84984477 -107.76429177 103.56033705 -107.7875185 97.2705822 C-107.80238754 92.37493232 -107.80310963 87.47935148 -107.80000877 82.58368301 C-107.80051573 80.26768535 -107.80563316 77.95168317 -107.81582069 75.63570786 C-107.91722609 49.35660525 -107.00616862 21.97169517 -87.75 1.90234375 C-64.64127301 -20.23050795 -24.442381 -20.92415949 0 0 Z M-56.3125 32.25 C-61.72343196 39.84025318 -61.87144977 49.12029816 -61.80981445 58.07861328 C-61.81346512 59.27666595 -61.81711578 60.47471863 -61.82087708 61.70907593 C-61.82755053 64.96525243 -61.82093397 68.22104896 -61.80754495 71.47719431 C-61.79614168 74.90072012 -61.80034463 78.32423284 -61.80229187 81.74777222 C-61.80317182 87.49221723 -61.79215531 93.23654355 -61.77368164 98.98095703 C-61.7524984 105.60550551 -61.74901023 112.22988056 -61.7552436 118.85445607 C-61.76095326 125.25209328 -61.75527407 131.64966995 -61.74407005 138.04729843 C-61.73944729 140.75921635 -61.73854005 143.47109696 -61.7406559 146.18301773 C-61.7410276 149.97383735 -61.72837724 153.76439552 -61.7121582 157.55517578 C-61.71463562 158.6701947 -61.71711304 159.78521362 -61.71966553 160.934021 C-61.65736122 170.07898296 -60.68867335 178.55232234 -54.4375 185.6875 C-49.78610886 189.16627153 -45.24450363 190.51707195 -39.4375 189.6875 C-33.23384485 187.67903693 -29.3983127 184.4717321 -26.4375 178.6875 C-24.13580395 171.76268142 -24.15221525 164.74052005 -24.17871094 157.51757812 C-24.1752063 156.33103134 -24.17170166 155.14448456 -24.16809082 153.92198181 C-24.16083626 150.69261837 -24.16248093 147.463421 -24.16884899 144.23406029 C-24.17394668 140.8390203 -24.16920714 137.44399066 -24.16607666 134.0489502 C-24.16244793 128.34983355 -24.16720732 122.65076889 -24.17675781 116.95166016 C-24.18764027 110.38225846 -24.18411392 103.81298094 -24.173105 97.24358225 C-24.16400087 91.58214974 -24.16276208 85.9207544 -24.16798234 80.25931692 C-24.17108491 76.88721783 -24.17155889 73.51517692 -24.16490936 70.14308167 C-24.1598122 66.38111051 -24.16759946 62.61937551 -24.17871094 58.85742188 C-24.17466248 57.75377792 -24.17061401 56.65013397 -24.16644287 55.51304626 C-24.22115357 45.47915233 -25.18512104 38.02171224 -31.74609375 30.109375 C-38.99090276 24.01905056 -49.8751453 26.51235777 -56.3125 32.25 Z " fill="#0F0E0C" transform="translate(303.4375,254.3125)"/>
<path d="M0 0 C14.85 0 29.7 0 45 0 C45.01458252 5.85065186 45.02916504 11.70130371 45.04418945 17.72924805 C45.09445416 37.02765786 45.16088343 56.32598676 45.23571491 75.62431622 C45.28070254 87.32855518 45.32011037 99.03276351 45.34643555 110.73706055 C45.36939158 120.93715289 45.40276278 131.13714853 45.44870156 141.33716422 C45.47266605 146.73923771 45.49137369 152.14121523 45.49761391 157.54334068 C45.50365014 162.62653312 45.5235971 167.70947994 45.55427551 172.79258156 C45.56307919 174.65941794 45.56677352 176.52628639 45.56500816 178.3931427 C45.56335981 180.94029279 45.58001687 183.48669021 45.60127258 186.03373718 C45.59642501 186.77401694 45.59157743 187.51429671 45.58658296 188.27700919 C45.64715973 192.66968823 46.26629656 195.51855117 49 199 C53.27063546 200.47317333 57.4875765 199.69192791 61.52734375 197.84375 C68.52480732 193.33353651 77.11265152 186.39419417 79.57259989 178.06007481 C80.47562042 172.77627648 80.31659614 167.45515738 80.22705078 162.11425781 C80.23410561 160.33908921 80.24555597 158.56393352 80.2610321 156.78881836 C80.29044835 152.00377525 80.25891381 147.2209022 80.21586847 142.43603611 C80.18132359 137.42317162 80.203611 132.41055567 80.21969604 127.39764404 C80.24155976 117.92040199 80.21281161 108.44402653 80.165573 98.9669044 C80.11424868 88.1711281 80.119812 77.37561099 80.12999368 66.57974482 C80.14965857 44.38606497 80.09089723 22.19352141 80 0 C94.85 0 109.7 0 125 0 C125 77.88 125 155.76 125 236 C110.15 236 95.3 236 80 236 C79.505 223.625 79.505 223.625 79 211 C77.453125 212.77375 75.90625 214.5475 74.3125 216.375 C64.32638096 227.41809923 51.5746711 238.12465476 36.08203125 239.203125 C25.99914886 239.34768245 18.35437774 238.35046701 10.8515625 231.19140625 C-0.81366175 217.38509654 -0.4431891 198.78339456 -0.34057617 181.75415039 C-0.33972808 179.76181552 -0.34020858 177.76947972 -0.34190369 175.77714539 C-0.34275797 170.41448433 -0.32522482 165.05202808 -0.30418181 159.68941426 C-0.28531969 154.06805435 -0.2836571 148.4466888 -0.28010559 142.82530212 C-0.27081298 132.20096662 -0.24623717 121.57672466 -0.21605712 110.95243019 C-0.18242606 98.84833551 -0.16600528 86.74423616 -0.15097082 74.64010632 C-0.11968492 49.7600072 -0.06470794 24.88003619 0 0 Z " fill="#FEFBFB" transform="translate(717,244)"/>
<path d="M0 0 C48.84 0 97.68 0 148 0 C148 14.52 148 29.04 148 44 C130.84 44 113.68 44 96 44 C96 133.43 96 222.86 96 315 C80.49 315 64.98 315 49 315 C49 225.57 49 136.14 49 44 C32.83 44 16.66 44 0 44 C0 29.48 0 14.96 0 0 Z " fill="#FEFEFE" transform="translate(576,165)"/>
<path d="M0 0 C5.79302834 4.09750785 7.98042746 9.08535396 9.5625 15.8125 C9.97077625 20.00127884 9.96295164 24.15941418 9.93481445 28.36547852 C9.93846512 29.59264587 9.94211578 30.81981323 9.94587708 32.08416748 C9.9525596 35.42518089 9.94592028 38.76563016 9.93254495 42.10658765 C9.92115667 45.61687035 9.92534356 49.12714002 9.92729187 52.63743591 C9.92817241 58.52909133 9.91714389 64.42063115 9.89868164 70.31225586 C9.87750785 77.10776146 9.87400768 83.903098 9.8802436 90.69862992 C9.88595288 97.2580471 9.88027384 103.81740522 9.86907005 110.37681389 C9.86444574 113.15850869 9.86354075 115.94016712 9.8656559 118.7218647 C9.86790218 122.61094502 9.85337856 126.4998669 9.8371582 130.38891602 C9.83963562 131.5335582 9.84211304 132.67820038 9.84466553 133.85752869 C9.78576088 142.725379 8.80657058 151.35866384 3.5625 158.8125 C-1.27664999 162.76282652 -5.38839535 163.50429249 -11.59375 163.265625 C-16.42314718 162.49610567 -20.38749473 160.49703705 -24.4375 157.8125 C-25.4600589 157.23725082 -26.4826178 156.66200165 -27.53616333 156.06932068 C-29.81246404 154.12856769 -30.39036388 153.04016589 -31.00446701 150.07406807 C-31.23648354 146.41193464 -31.27065134 142.79089434 -31.24560547 139.12133789 C-31.25701589 137.71161231 -31.27094562 136.30190521 -31.28720093 134.89222717 C-31.3230648 131.06966144 -31.32072814 127.2480138 -31.30931616 123.4253304 C-31.30313203 120.23193112 -31.31531755 117.03870817 -31.32739365 113.84533399 C-31.35548102 106.31055827 -31.35236501 98.77623606 -31.32958984 91.24145508 C-31.30662708 83.47304003 -31.33477615 75.70600587 -31.38838279 67.93777281 C-31.43271432 61.26322467 -31.44596804 54.58910973 -31.43422997 47.91442484 C-31.42749193 43.9300358 -31.432309 39.94653189 -31.46673203 35.96226692 C-31.49769795 32.21463251 -31.48973993 28.46904104 -31.45212173 24.72148705 C-31.44124989 22.69492787 -31.46976274 20.66827671 -31.49951172 18.64190674 C-31.35838424 9.94059944 -31.35838424 9.94059944 -28.72360611 6.71294975 C-26.68978979 5.15589007 -24.71821511 3.96928849 -22.4375 2.8125 C-21.16638096 2.02129216 -19.89550326 1.22969627 -18.625 0.4375 C-12.63794671 -2.38479928 -6.15813241 -2.12735483 0 0 Z " fill="#E42627" transform="translate(949.4375,281.1875)"/>
<path d="M0 0 C4.61178445 2.1050001 7.10514657 4.74140529 9.4375 9.31640625 C11.31395706 14.74349689 11.70868461 19.43530326 11.6328125 25.09375 C11.63079834 25.81405396 11.62878418 26.53435791 11.62670898 27.27648926 C11.61634171 29.93569418 11.58842005 32.59480745 11.5625 35.25390625 C11.52125 41.21453125 11.48 47.17515625 11.4375 53.31640625 C-1.7625 53.31640625 -14.9625 53.31640625 -28.5625 53.31640625 C-28.624375 47.23203125 -28.68625 41.14765625 -28.75 34.87890625 C-28.77731201 32.9769751 -28.80462402 31.07504395 -28.83276367 29.11547852 C-28.84153924 27.57959627 -28.84918063 26.04370695 -28.85546875 24.5078125 C-28.87081665 23.73336792 -28.88616455 22.95892334 -28.90197754 22.16101074 C-28.90498388 15.7725293 -27.9403043 9.23967568 -23.80859375 4.16015625 C-23.21175781 3.71671875 -22.61492187 3.27328125 -22 2.81640625 C-21.40058594 2.35234375 -20.80117187 1.88828125 -20.18359375 1.41015625 C-14.65884871 -2.31738257 -6.24434911 -1.66579435 0 0 Z " fill="#E42829" transform="translate(1105.5625,280.68359375)"/>
</svg>
